# xmcd CD database file
#
# Track frame offsets:
#	150
#	14556
#	34616
#	53557
#	71040
#	88721
#	109000
#	126432
#	144270
#	162684
#	183273
#	198023
#
# Disc length: 2907 seconds
#
# Revision: 9
# Processed by: cddbd v1.5.1PL0 Copyright (c) Steve Scherf et al.
# Submitted via: CDex 1.51
#
DISCID=a20b590c
DTITLE=Trisha Yearwood - Real Live Woman
DYEAR=2000
DGENRE=Country
TTITLE0=Where Are You Now
TTITLE1=One Love
TTITLE2=Sad Eyes
TTITLE3=Some Days
TTITLE4=I Did
TTITLE5=Try Me Again
TTITLE6=Too Bad You're No Good
TTITLE7=Real Live Woman
TTITLE8=I'm Still Alive
TTITLE9=Wild For You Baby
TTITLE10=Come Back When It Ain't Rainin'
TTITLE11=When A Love Song Sings The Blues
EXTD=YEAR: 2000
EXTT0=
EXTT1=
EXTT2=
EXTT3=
EXTT4=
EXTT5=
EXTT6=
EXTT7=
EXTT8=
EXTT9=
EXTT10=
EXTT11=
PLAYORDER=
